# xmcd CD database file
#
# Track frame offsets:
#	150
#	17303
#	33347
#	47627
#	65852
#	87502
#	100625
#	117107
#	139491
#	158293
#	172989
#	184143
#	204797
#	220118
#	228753
#
# Disc length: 3156 seconds
#
# Revision: 1
# Processed by: cddbd v1.5.2PL0 Copyright (c) Steve Scherf et al.
# Submitted via: jetAudio 5
#
DISCID=b80c520f
DTITLE=Jorge Palma - Norte
DYEAR=1900
DGENRE=
TTITLE0=Passeio dos prodígios
TTITLE1=Optimista céptico
TTITLE2=Escuridão (vai por mim)
TTITLE3=Os demitidos
TTITLE4=Norte (o meu)
TTITLE5=Tama-ra
TTITLE6=Há tanto tempo (espero por ti)
TTITLE7=D. Quixote foi-se embora
TTITLE8=Gosto de brincar com o fogo
TTITLE9=Acordar tarde
TTITLE10=Valsa de um homem carente
TTITLE11=Outono (estratégia da cigarra)
TTITLE12=Demónios interiores
TTITLE13=Good old dixie's back
TTITLE14=Partitura humana
EXTD=
EXTT0=
EXTT1=
EXTT2=
EXTT3=
EXTT4=
EXTT5=
EXTT6=
EXTT7=
EXTT8=
EXTT9=
EXTT10=
EXTT11=
EXTT12=
EXTT13=
EXTT14=
PLAYORDER=
